<svg width="110" height="110" viewBox="0 0 110 110" fill="none" xmlns="http://www.w3.org/2000/svg">
<g clip-path="url(#clip0_209_126)">
<path d="M18.1277 71.9184C28.1214 82.2994 44.5006 82.8002 54.6815 72.9992C56.7497 71.0082 58.9716 69.7288 61.2539 69.2076L65.4833 68.3136C68.5007 67.6287 71.1194 66.0219 73.0189 63.8668L82.7339 64.8959C83.1609 65.7037 83.7033 66.4548 84.3395 67.1156C88.0803 71.0013 94.2355 71.1916 98.0299 67.5388C100.65 65.0169 101.592 61.0731 100.385 57.5232C100.074 56.6478 100.075 55.7327 100.404 54.8277C101.661 51.3978 100.775 47.3975 98.1921 44.7148C94.4513 40.829 88.2961 40.6387 84.5017 44.2915C83.8564 44.9127 83.3091 45.6246 82.8653 46.411L73.1399 46.8391C72.8901 46.5355 72.6621 46.2544 72.3902 45.972C70.6014 44.1139 68.3055 42.7003 65.6599 41.9281L61.445 40.773C59.1712 40.1109 56.9901 38.7174 54.9022 36.5486L54.8805 36.526C44.8868 26.1451 28.5076 25.6442 18.3763 35.3975C8.2506 45.1454 8.13409 61.5375 18.1277 71.9184ZM85.3124 52.761C86.6549 52.6875 87.828 51.7867 88.1822 50.4989C88.3675 49.8635 88.6503 49.3736 89.0418 48.9966C90.3048 47.7808 92.3638 47.8444 93.609 49.1378C94.4681 50.0302 94.7763 51.3658 94.3353 52.5194C93.5249 54.8014 93.5026 57.1734 94.2857 59.5101C94.71 60.6905 94.3829 62.0065 93.5115 62.8454C91.857 64.4382 88.8266 63.8623 88.1174 61.1497C87.7872 59.8353 86.6274 58.8624 85.2811 58.7112L76.0257 57.7401C76.0491 57.5326 76.1214 57.3759 76.1172 57.1949C76.2088 56.6498 76.2623 56.0541 76.2665 55.4624C76.2707 54.8707 76.2311 54.2777 76.1419 53.7215C76.1432 53.5352 76.0732 53.3741 76.0582 53.1709L85.3233 52.7723L85.3124 52.761Z" fill="#FDCBE5"/>
<path d="M24.6514 58.3389C24.5056 58.4482 24.338 58.4883 24.1484 58.4591C23.9662 58.4373 23.8204 58.3534 23.7111 58.2077C23.5945 58.0546 23.5507 57.8869 23.5799 57.7047C23.609 57.5225 23.6965 57.3731 23.8423 57.2565C24.3233 56.8993 24.7278 56.4657 25.0558 55.9555C25.3838 55.4452 25.6243 54.8877 25.7773 54.2827L22.0381 54.2825C21.8559 54.2825 21.6992 54.2205 21.568 54.0966C21.444 53.9654 21.3821 53.8087 21.3821 53.6265C21.3821 53.4442 21.444 53.2912 21.5679 53.1673C21.6991 53.0361 21.8558 52.9705 22.038 52.9705L25.9631 52.9707C25.9704 52.5917 25.9485 52.2054 25.8974 51.8118C25.4601 51.8846 25.0264 51.9466 24.5964 51.9976C24.1663 52.0413 23.7655 52.0741 23.3937 52.0959C23.2115 52.1105 23.0511 52.0522 22.9127 51.9209C22.7814 51.7897 22.7122 51.633 22.7049 51.4508C22.6976 51.2613 22.7595 51.1046 22.8907 50.9807C23.0219 50.8495 23.1786 50.7802 23.3609 50.773C23.7253 50.7584 24.1189 50.7256 24.5417 50.6746C24.9644 50.6236 25.3908 50.5617 25.8208 50.4888C26.2509 50.416 26.6591 50.3358 27.0454 50.2484C27.439 50.1536 27.7852 50.0589 28.084 49.9641C28.2662 49.9058 28.4412 49.9131 28.6088 49.986C28.7765 50.0589 28.8931 50.1828 28.9587 50.3578C29.0243 50.5327 29.017 50.704 28.9369 50.8716C28.864 51.0393 28.7364 51.1523 28.5542 51.2106C28.372 51.2762 28.1643 51.3381 27.931 51.3964C27.6978 51.4547 27.45 51.513 27.1876 51.5713C27.224 51.7973 27.2459 52.0305 27.2532 52.271C27.2678 52.5043 27.2714 52.7375 27.2642 52.9708L30.4239 52.9709C30.6061 52.9709 30.7592 53.0365 30.8831 53.1677C31.0143 53.2917 31.0799 53.4447 31.0799 53.627C31.0799 53.8092 31.0144 53.9659 30.8832 54.0971C30.7593 54.221 30.6062 54.2829 30.424 54.2829L27.1002 54.2828C26.9326 55.1137 26.6375 55.8863 26.2148 56.6006C25.7993 57.3076 25.2782 57.887 24.6514 58.3389ZM36.7437 58.6347C36.5614 58.6566 36.3938 58.6092 36.2407 58.4925C36.0949 58.3832 36.0111 58.2374 35.9892 58.0552C35.9673 57.8584 35.9236 57.5268 35.858 57.0603C35.7924 56.5865 35.7194 56.058 35.6392 55.4749C35.1727 55.5259 34.7281 55.5806 34.3054 55.6388C33.8826 55.6898 33.5145 55.7336 33.2011 55.77C32.895 55.8064 32.6727 55.8356 32.5342 55.8574C32.352 55.8793 32.188 55.8319 32.0422 55.7153C31.8964 55.5986 31.8162 55.4492 31.8016 55.267C31.7797 55.0775 31.8271 54.9135 31.9437 54.775C32.0603 54.6292 32.2098 54.5454 32.392 54.5236C32.5086 54.509 32.72 54.4871 33.0261 54.458C33.3322 54.4216 33.6967 54.3778 34.1194 54.3268C34.5422 54.2758 34.9868 54.2248 35.4533 54.1738L35.2783 52.9274C34.7972 52.9784 34.3599 53.0294 33.9663 53.0804C33.58 53.1314 33.314 53.1642 33.1682 53.1788C32.986 53.2006 32.822 53.1533 32.6762 53.0366C32.5377 52.9127 32.4575 52.7596 32.4356 52.5774C32.421 52.3952 32.472 52.2348 32.5887 52.0964C32.7053 51.9506 32.8547 51.8668 33.0369 51.8449C33.1535 51.8303 33.4014 51.8048 33.7804 51.7684C34.1667 51.7247 34.604 51.6737 35.0924 51.6154C35.0049 51.0469 34.9429 50.6241 34.9064 50.3471C34.8773 50.1576 34.921 49.99 35.0376 49.8442C35.1542 49.6984 35.3036 49.6146 35.4859 49.5928C35.6754 49.5636 35.843 49.6074 35.9888 49.724C36.1346 49.8333 36.2184 49.9828 36.2403 50.1723C36.2549 50.3108 36.2768 50.493 36.3059 50.7189C36.3424 50.9376 36.3788 51.1891 36.4153 51.4734C36.8453 51.4224 37.2389 51.3786 37.5961 51.3422C37.9532 51.2985 38.2266 51.2657 38.4161 51.2439C38.5983 51.222 38.7587 51.2694 38.8972 51.386C39.0429 51.5026 39.1231 51.6557 39.1377 51.8452C39.1523 52.0274 39.1013 52.1914 38.9847 52.3372C38.8753 52.4757 38.7259 52.5522 38.5364 52.5668C38.3542 52.5814 38.0882 52.6069 37.7383 52.6433C37.3884 52.6797 37.0058 52.7234 36.5903 52.7744L36.7653 54.0099C37.2099 53.9516 37.629 53.9006 38.0226 53.8569C38.4162 53.8132 38.7551 53.7731 39.0394 53.7367C39.3237 53.7003 39.5168 53.6784 39.6189 53.6711C39.6189 53.6711 39.6772 53.6966 39.7938 53.7477C39.9104 53.7914 40.0307 53.857 40.1546 53.9445C40.2785 54.0319 40.3478 54.1376 40.3624 54.2616C40.3842 54.4438 40.3369 54.6078 40.2203 54.7535C40.1036 54.8993 39.9542 54.9795 39.772 54.9941C39.6627 55.0013 39.4695 55.0232 39.1925 55.0596C38.9156 55.0888 38.5803 55.1252 38.1867 55.1689C37.8004 55.2126 37.3886 55.2636 36.9512 55.3219C37.0314 55.9123 37.1043 56.4408 37.17 56.9073C37.2429 57.3665 37.2939 57.6872 37.3231 57.8694C37.3595 58.0516 37.3195 58.2156 37.2028 58.3614C37.0862 58.5145 36.9332 58.6056 36.7437 58.6347ZM43.3364 57.7166C43.1615 57.7822 42.9865 57.7749 42.8116 57.6947C42.644 57.6146 42.5273 57.487 42.4617 57.3121C42.3961 57.1371 42.4034 56.9658 42.4836 56.7982C42.5637 56.6233 42.6913 56.503 42.8662 56.4374C43.4493 56.2334 44.0361 55.9819 44.6264 55.6831C45.2241 55.3843 45.7926 55.06 46.332 54.7101C46.8786 54.353 47.3743 53.9886 47.8189 53.6169C48.2708 53.2379 48.6388 52.8734 48.9231 52.5236C49.047 52.3778 49.2 52.294 49.3823 52.2721C49.5718 52.2503 49.7358 52.3013 49.8743 52.4252C50.0201 52.5419 50.1039 52.6949 50.1258 52.8844C50.1476 53.0667 50.0966 53.2307 49.9727 53.3764C49.6739 53.7409 49.2767 54.1308 48.7811 54.5462C48.2854 54.9544 47.7315 55.3589 47.1192 55.7598C46.507 56.1606 45.8765 56.5323 45.2278 56.8749C44.5791 57.2174 43.9487 57.498 43.3364 57.7166ZM44.2765 53.4089C43.9995 53.1757 43.6897 52.9351 43.3471 52.6873C43.0045 52.4322 42.6947 52.2244 42.4177 52.0641C42.2574 51.962 42.1553 51.8235 42.1116 51.6486C42.0678 51.4663 42.0933 51.2951 42.1881 51.1347C42.2901 50.9744 42.4286 50.8723 42.6035 50.8286C42.7858 50.7776 42.957 50.8031 43.1174 50.9052C43.3142 51.0291 43.5365 51.1822 43.7844 51.3644C44.0395 51.5393 44.2837 51.7143 44.5169 51.8892C44.7575 52.0642 44.9543 52.2136 45.1073 52.3375C45.2531 52.4542 45.337 52.6072 45.3588 52.7967C45.388 52.979 45.3443 53.143 45.2277 53.2887C45.111 53.4345 44.958 53.522 44.7685 53.5511C44.5862 53.573 44.4222 53.5256 44.2765 53.4089ZM55.3549 58.8734C55.2292 58.8734 55.1199 58.8324 55.0269 58.7504C54.9395 58.6684 54.8957 58.5563 54.8957 58.4142L54.8956 56.1018C54.6933 56.3259 54.461 56.5583 54.1986 56.7988C53.9417 57.0338 53.6739 57.2552 53.3951 57.4629C53.1217 57.6707 52.8566 57.8483 52.5997 57.9959C52.4794 58.0615 52.351 58.0806 52.2143 58.0533C52.0776 58.0205 51.9765 57.9439 51.9109 57.8237C51.8507 57.6979 51.8398 57.5804 51.8781 57.4711C51.9163 57.3617 51.9929 57.277 52.1076 57.2169C52.3044 57.113 52.5176 56.9791 52.7472 56.8151C52.9823 56.6511 53.2173 56.4762 53.4524 56.2903C53.6875 56.099 53.9089 55.9077 54.1166 55.7164C54.3298 55.5251 54.5102 55.3474 54.6577 55.1834L53.1325 55.1833L53.1325 55.1915C53.1326 55.4594 53.0998 55.6753 53.0342 55.8393C52.9686 55.9978 52.8511 56.1126 52.6816 56.1837C52.5121 56.2548 52.2716 56.2903 51.96 56.2903C51.6484 56.2902 51.4079 56.2547 51.2384 56.1836C51.0689 56.1126 50.9514 55.9977 50.8858 55.8392C50.8202 55.6752 50.7874 55.4593 50.7873 55.1914L50.7873 53.3464C50.7872 53.0785 50.82 52.8653 50.8856 52.7068C50.9512 52.5428 51.0687 52.4253 51.2382 52.3542C51.4077 52.2832 51.6482 52.2476 51.9598 52.2477C52.2714 52.2477 52.5119 52.2832 52.6814 52.3543C52.8509 52.4254 52.9684 52.5429 53.034 52.7069C53.0996 52.8655 53.1324 53.0787 53.1325 53.3465L53.1325 54.3387L54.8955 54.3388L54.8955 53.3876L53.7803 53.3876C53.6491 53.3875 53.5452 53.3465 53.4687 53.2645C53.3921 53.1825 53.3538 53.0814 53.3538 52.9611C53.3538 52.8463 53.3921 52.7479 53.4686 52.6659C53.5452 52.5839 53.649 52.5429 53.7802 52.543L54.8954 52.543L54.8954 51.6656C54.8954 51.5235 54.9391 51.4114 55.0266 51.3294C55.1195 51.2474 55.2288 51.2064 55.3545 51.2064C55.4857 51.2064 55.5951 51.2474 55.6826 51.3295C55.77 51.4115 55.8138 51.5235 55.8138 51.6657L55.8138 52.5431L57.1914 52.5431C57.3171 52.5431 57.4183 52.5841 57.4948 52.6661C57.5714 52.7481 57.6096 52.8465 57.6096 52.9613C57.6096 53.0816 57.5714 53.1827 57.4949 53.2647C57.4183 53.3467 57.3172 53.3877 57.1915 53.3877L55.8139 53.3877L55.8139 54.3389L57.7573 54.339C57.883 54.339 57.9842 54.38 58.0607 54.462C58.1372 54.544 58.1755 54.6451 58.1755 54.7654C58.1755 54.8802 58.1373 54.9786 58.0607 55.0606C57.9842 55.1426 57.8831 55.1836 57.7573 55.1836L56.0353 55.1835C56.1611 55.342 56.3114 55.5142 56.4864 55.7001C56.6613 55.886 56.8472 56.0691 57.044 56.2495C57.2408 56.4299 57.4349 56.5994 57.6262 56.7579C57.8176 56.9165 57.9925 57.0504 58.151 57.1598C58.2659 57.2363 58.3315 57.3402 58.3479 57.4714C58.3697 57.5971 58.3397 57.7147 58.2577 57.824C58.1702 57.9388 58.0582 58.0016 57.9215 58.0126C57.7848 58.0235 57.6591 57.9852 57.5443 57.8977C57.3857 57.7665 57.2053 57.608 57.0031 57.4221C56.8008 57.2308 56.5958 57.0258 56.388 56.8071C56.1858 56.5829 55.9944 56.3588 55.814 56.1347L55.8141 58.4143C55.8141 58.5564 55.7704 58.6685 55.6829 58.7505C55.5955 58.8324 55.4861 58.8734 55.3549 58.8734ZM51.96 55.4047C52.0857 55.4047 52.1704 55.3855 52.2142 55.3473C52.2579 55.309 52.2798 55.2243 52.2797 55.0931L52.2797 53.4449C52.2797 53.3137 52.2578 53.2289 52.214 53.1907C52.1703 53.1524 52.0856 53.1333 51.9598 53.1333C51.8286 53.1333 51.7412 53.1524 51.6974 53.1907C51.6592 53.2289 51.6401 53.3136 51.6401 53.4448L51.6401 55.093C51.6402 55.2242 51.6593 55.309 51.6976 55.3473C51.7413 55.3855 51.8288 55.4047 51.96 55.4047Z" fill="#D32981"/>
</g>
<defs>
<clipPath id="clip0_209_126">
<rect width="78.3982" height="76.5466" fill="white" transform="translate(54.3723 109.568) rotate(-133.911)"/>
</clipPath>
</defs>
</svg>
