<?xml version="1.0" encoding="UTF-8"?>
<svg id="_レイヤー_2" data-name="レイヤー 2" xmlns="http://www.w3.org/2000/svg" width="26.76mm" height="19.6mm" viewBox="0 0 75.85 55.57">
  <defs>
    <style>
      .cls-1 {
        fill: none;
        stroke: #5b4a27;
        stroke-linecap: round;
        stroke-linejoin: round;
        stroke-width: .7px;
      }

      .cls-2 {
        fill: #e1d7bf;
      }
    </style>
  </defs>
  <g id="_レイヤー_1-2" data-name="レイヤー 1">
    <g>
      <polyline class="cls-2" points="75.5 33.76 67.66 27.44 75.5 21.12"/>
      <path class="cls-2" d="m.35,27.44h0s0,0,0,0c18.62-15.01,48.8-15.01,67.42,0h0s0,0,0,0c-18.62,15.01-48.8,15.01-67.42,0Z"/>
      <g>
        <g>
          <g>
            <path class="cls-1" d="m20.83,19.02c2.28,0,4.14,3.77,4.14,8.42s-1.85,8.42-4.14,8.42"/>
            <g>
              <path class="cls-1" d="m.35,27.44h0s0,0,0,0c18.62-15.01,48.8-15.01,67.42,0h0s0,0,0,0c-18.62,15.01-48.8,15.01-67.42,0Z"/>
              <polyline class="cls-1" points="75.5 33.76 67.66 27.44 75.5 21.12"/>
            </g>
            <polyline class="cls-1" points="29.53 25.14 38.58 23.4 38.58 31.47 29.53 29.74"/>
          </g>
          <circle class="cls-1" cx="11.41" cy="26.52" r=".92"/>
        </g>
        <path class="cls-1" d="m42.69,23.4s9.54-.23,18.58,2.6"/>
        <line class="cls-1" x1="42.69" y1="27.44" x2="62.03" y2="27.44"/>
      </g>
      <g>
        <path class="cls-1" d="m25.58.35h2.73c1.82,0,3.29,1.47,3.29,3.29v2.72c0,1.82-1.47,3.29-3.29,3.29h-2.73V.35h0Z"/>
        <line class="cls-1" x1="35.17" y1=".35" x2="35.17" y2="9.66"/>
        <line class="cls-1" x1="40.36" y1=".35" x2="40.36" y2="9.66"/>
        <line class="cls-1" x1="35.17" y1="5" x2="40.36" y2="5"/>
        <polyline class="cls-1" points="43.88 9.66 47.07 .35 50.27 9.66"/>
        <line class="cls-1" x1="44.93" y1="6.59" x2="49.21" y2="6.59"/>
      </g>
      <g>
        <polyline class="cls-1" points="42.73 55.22 45.93 45.91 49.12 55.22"/>
        <line class="cls-1" x1="43.78" y1="52.16" x2="48.07" y2="52.16"/>
        <polyline class="cls-1" points="32.26 46.03 26.72 46.03 26.72 55.03 32.59 55.03"/>
        <line class="cls-1" x1="26.72" y1="50.53" x2="31.68" y2="50.53"/>
        <path class="cls-1" d="m36.09,55.03v-9h2.71c1.38,0,2.5,1.12,2.5,2.5h0c0,1.34-1.06,2.45-2.4,2.5l-2.81.11"/>
      </g>
    </g>
  </g>
</svg>