<?xml version="1.0" encoding="UTF-8"?>
<svg id="_レイヤー_2" data-name="レイヤー 2" xmlns="http://www.w3.org/2000/svg" width="15.22mm" height="16.5mm" viewBox="0 0 43.14 46.78">
  <defs>
    <style>
      .cls-1 {
        fill: none;
        stroke: #5e4a21;
        stroke-linecap: round;
        stroke-linejoin: round;
        stroke-width: .7px;
      }
    </style>
  </defs>
  <g id="_レイヤー_2-2" data-name="レイヤー 2">
    <g>
      <path class="cls-1" d="m32.19,31.21c3.34,0,6.04-2.66,6.04-5.95v-1.17h.02v-1.28c0-.11-.01-.22-.02-.33v-.65h-.03c-.52-7.73-7.02-13.85-15-13.85h-9.83c-1.66,0-3.01-1.33-3.01-2.97V.35"/>
      <path class="cls-1" d="m16.56,40.71h18.24c2.36,0,4.47-1.69,4.69-4,.26-2.65-1.85-5.49-4.49-5.49H11.67"/>
      <path class="cls-1" d="m16.56,40.71h6.78c2.49,0,4.51,2,4.51,4.45v1.27"/>
      <path class="cls-1" d="m16.76,35.66c-2.36,0-4.73,1.9-4.96,4.5-.26,2.98,2.12,5.5,4.76,5.5h6.78c.33,0,.61.3.61.67v.08"/>
      <path class="cls-1" d="m25.59,26.76h-13.72c-2.36,0-4.46,1.69-4.69,4-.26,2.65,1.85,4.89,4.49,4.89h23.33c.33,0,.61.27.61.6"/>
      <path class="cls-1" d="m7.23.35v11.22s-.34,15.17,15.05,15.17h11.46c.32,0,.59.26.59.58h0"/>
      <path class="cls-1" d="m39.51,8.98c0-1-2.28-3.28-3.28-3.28,1,0,3.28-2.28,3.28-3.28,0,1,2.28,3.28,3.28,3.28-1,0-3.28,2.28-3.28,3.28Z"/>
      <path class="cls-1" d="m2.77,28.73c0-.74-1.68-2.42-2.42-2.42.74,0,2.42-1.68,2.42-2.42,0,.74,1.68,2.42,2.42,2.42-.74,0-2.42,1.68-2.42,2.42Z"/>
    </g>
  </g>
</svg>