<svg width="84" height="41" viewBox="0 0 84 41" fill="none" xmlns="http://www.w3.org/2000/svg">
<g clip-path="url(#clip0_173_1310)">
<path d="M0.250824 19.1258C3.70356 13.7154 9.87272 6.46112 19.6538 2.68199C20.4797 2.36791 21.3055 2.08422 22.1414 1.83093C22.2508 1.78027 22.3603 1.74988 22.4498 1.73974C25.6538 0.726573 28.9672 0.169329 32.2906 0.00722191C36.7583 -0.0738318 43.6339 0.513808 48.7284 2.4591C54.818 4.56649 60.7583 7.97075 66.2608 12.6212C68.0021 9.17642 72.5692 2.89476 82.4896 3.452C83.2558 3.4824 83.8727 4.10043 83.9523 4.88058C83.9822 5.29598 84.7782 14.455 78.5095 19.987C84.7782 25.4986 83.9822 34.6678 83.9523 35.0832C83.8727 35.8633 83.2558 36.4814 82.4896 36.5118C72.5593 37.069 68.0021 30.7772 66.2608 27.3324C60.7583 31.9829 54.818 35.4074 48.7284 37.5148C43.1264 39.7438 36.9573 40.1997 32.2906 39.9667C28.9473 39.8046 25.6538 39.2575 22.4498 38.224C22.3702 38.224 22.2906 38.1936 22.221 38.1632C21.3453 37.9302 20.4996 37.6263 19.6538 37.2919C9.87272 33.5128 3.70356 26.2585 0.250824 20.8482C-0.0775299 20.3213 -0.0775299 19.6627 0.250824 19.1359V19.1258Z" fill="#ABD4ED"/>
<path d="M12.4112 23.1694C12.2436 23.2423 12.0686 23.2423 11.8864 23.1694C11.7115 23.1038 11.5839 22.9871 11.5037 22.8195C11.4308 22.6519 11.4272 22.4806 11.4928 22.3056C11.5584 22.1234 11.675 21.9959 11.8427 21.923C12.987 21.4055 13.9492 20.7895 14.7291 20.0752C15.509 19.3609 16.0812 18.5847 16.4456 17.7464C16.5987 17.3893 16.6205 17.1159 16.5112 16.9264C16.4019 16.7369 16.1322 16.6422 15.7021 16.6422H11.5693C11.3871 16.6422 11.2268 16.5766 11.0883 16.4454C10.9571 16.3142 10.8915 16.1575 10.8915 15.9752C10.8915 15.7857 10.9571 15.6254 11.0883 15.4942C11.2268 15.363 11.3871 15.2974 11.5693 15.2974H15.7677C16.431 15.2974 16.9449 15.4213 17.3093 15.6691C17.6811 15.9096 17.8997 16.2486 17.9653 16.6859C18.0382 17.1159 17.9508 17.6189 17.7029 18.1947C17.2729 19.2224 16.606 20.1627 15.7021 21.0155C14.8056 21.8683 13.7086 22.5863 12.4112 23.1694ZM23.1149 23.7707C22.9546 23.7707 22.8161 23.7124 22.6995 23.5958C22.5901 23.4864 22.5355 23.3516 22.5355 23.1912V20.0971C21.8503 20.6875 21.1579 21.2014 20.4581 21.6387C20.3196 21.7189 20.1702 21.7407 20.0099 21.7043C19.8495 21.6606 19.7256 21.5695 19.6381 21.431C19.558 21.2925 19.5361 21.1431 19.5725 20.9827C19.6163 20.8223 19.7074 20.7021 19.8459 20.6219C20.3488 20.3303 20.8444 19.9878 21.3328 19.5942C21.8284 19.2006 22.284 18.7887 22.6995 18.3587C23.1222 17.9214 23.4721 17.4986 23.7491 17.0904C23.8438 16.9519 23.9677 16.8681 24.1208 16.839C24.2812 16.8098 24.4306 16.8426 24.5691 16.9374C24.7076 17.0321 24.7914 17.1597 24.8205 17.32C24.8497 17.4804 24.8169 17.6262 24.7221 17.7574C24.5909 17.9469 24.4379 18.1473 24.2629 18.3587C24.0953 18.5701 23.9058 18.7815 23.6944 18.9928V23.1912C23.6944 23.3516 23.6361 23.4864 23.5195 23.5958C23.4101 23.7124 23.2753 23.7707 23.1149 23.7707ZM29.6859 23.4646C29.5401 23.5302 29.387 23.5338 29.2267 23.4755C29.0736 23.4172 28.9643 23.3151 28.8987 23.1694C28.8331 23.0163 28.8294 22.8632 28.8877 22.7102C28.946 22.5571 29.0481 22.4478 29.1939 22.3822C29.9373 22.0469 30.546 21.6679 31.0197 21.2451C31.5008 20.8151 31.8762 20.3231 32.1459 19.7691C32.4156 19.2079 32.6014 18.5664 32.7035 17.8448C32.7253 17.6772 32.8019 17.546 32.9331 17.4512C33.0716 17.3565 33.221 17.32 33.3813 17.3419C33.5417 17.3638 33.6692 17.4403 33.764 17.5715C33.866 17.7027 33.9025 17.8521 33.8733 18.0198C33.6838 19.2735 33.2465 20.3559 32.5613 21.267C31.8835 22.1708 30.925 22.9033 29.6859 23.4646ZM31.1291 19.9003C30.9687 19.9513 30.8193 19.944 30.6808 19.8784C30.5423 19.8055 30.4439 19.6926 30.3856 19.5395C30.3054 19.3281 30.2034 19.0876 30.0795 18.8179C29.9628 18.5482 29.8644 18.3332 29.7843 18.1728C29.7114 18.0271 29.6932 17.8776 29.7296 17.7246C29.766 17.5642 29.8535 17.4439 29.992 17.3638C30.1378 17.2763 30.2908 17.2544 30.4512 17.2982C30.6116 17.3346 30.7282 17.4257 30.8011 17.5715C30.9104 17.7756 31.0307 18.0271 31.1619 18.3259C31.3004 18.6175 31.4133 18.8944 31.5008 19.1568C31.5591 19.3099 31.5482 19.4593 31.468 19.6051C31.3951 19.7509 31.2821 19.8493 31.1291 19.9003ZM29.336 20.3158C29.1902 20.3814 29.0408 20.385 28.8877 20.3267C28.742 20.2611 28.6326 20.1554 28.5597 20.0096C28.4431 19.7691 28.3192 19.5359 28.188 19.3099C28.0641 19.0767 27.9511 18.8799 27.8491 18.7195C27.7543 18.581 27.7179 18.4316 27.7397 18.2712C27.7689 18.1109 27.8491 17.9833 27.9803 17.8886C28.1115 17.7938 28.2572 17.761 28.4176 17.7902C28.5852 17.812 28.7164 17.8886 28.8112 18.0198C28.9497 18.2166 29.0991 18.4644 29.2595 18.7632C29.4198 19.0548 29.5474 19.3135 29.6421 19.5395C29.715 19.6853 29.7187 19.8347 29.6531 19.9878C29.5948 20.1408 29.4891 20.2502 29.336 20.3158ZM37.4376 22.9398C37.2554 22.9908 37.0804 22.9762 36.9128 22.896C36.7524 22.8086 36.6431 22.6737 36.5848 22.4915C36.5338 22.3166 36.5484 22.1453 36.6285 21.9776C36.716 21.81 36.8472 21.7007 37.0221 21.6496C37.5834 21.4747 38.1556 21.2305 38.7387 20.9171C39.3291 20.6037 39.8976 20.2465 40.4443 19.8456C40.9982 19.4375 41.5048 19.0074 41.964 18.5555C42.4305 18.1036 42.8168 17.6517 43.1229 17.1998C43.225 17.0467 43.3671 16.9519 43.5493 16.9155C43.7316 16.8791 43.8992 16.9155 44.0523 17.0248C44.2126 17.1269 44.3074 17.269 44.3365 17.4512C44.373 17.6335 44.3402 17.8011 44.2381 17.9542C43.9028 18.4498 43.4764 18.9527 42.9589 19.463C42.4414 19.9659 41.8729 20.447 41.2533 20.9062C40.6338 21.3581 39.996 21.7626 39.34 22.1198C38.684 22.4696 38.0499 22.743 37.4376 22.9398ZM39.0011 17.3856C38.899 17.2909 38.7532 17.1779 38.5637 17.0467C38.3815 16.9155 38.192 16.7879 37.9952 16.664C37.7984 16.5328 37.6271 16.4308 37.4813 16.3579C37.321 16.2704 37.2153 16.1356 37.1643 15.9534C37.1132 15.7711 37.1351 15.5999 37.2299 15.4395C37.3246 15.2719 37.4631 15.1662 37.6453 15.1224C37.8276 15.0787 37.9988 15.1006 38.1592 15.188C38.3196 15.2755 38.5127 15.3958 38.7387 15.5488C38.9719 15.6946 39.1979 15.844 39.4165 15.9971C39.6352 16.1502 39.8065 16.2814 39.9304 16.3907C40.0689 16.5146 40.1381 16.6713 40.1381 16.8608C40.1454 17.0503 40.0871 17.2143 39.9632 17.3528C39.832 17.4913 39.6753 17.5606 39.4931 17.5606C39.3108 17.5606 39.1468 17.5023 39.0011 17.3856ZM37.8421 19.3974C37.7401 19.3172 37.5907 19.2188 37.3939 19.1022C37.2044 18.9783 37.0039 18.858 36.7925 18.7414C36.5884 18.6247 36.4135 18.5336 36.2677 18.468C36.1001 18.3879 35.9871 18.2567 35.9288 18.0744C35.8705 17.8922 35.8814 17.7209 35.9616 17.5606C36.0491 17.3929 36.1803 17.2836 36.3552 17.2326C36.5374 17.1743 36.7087 17.1852 36.8691 17.2654C37.044 17.3455 37.2481 17.4512 37.4813 17.5824C37.7219 17.7136 37.9551 17.8521 38.1811 17.9979C38.407 18.1364 38.5856 18.2567 38.7168 18.3587C38.8626 18.4753 38.9428 18.6284 38.9573 18.8179C38.9719 19.0001 38.9172 19.1641 38.7933 19.3099C38.6767 19.4557 38.5236 19.5359 38.3341 19.5504C38.1519 19.565 37.9879 19.514 37.8421 19.3974ZM46.2061 22.251C46.0458 22.251 45.9073 22.1927 45.7907 22.076C45.674 21.9594 45.6157 21.8209 45.6157 21.6606C45.6157 21.4929 45.674 21.3544 45.7907 21.2451C45.9073 21.1285 46.0458 21.0702 46.2061 21.0702H50.1531C50.3353 20.5672 50.4373 20.1919 50.4592 19.944C50.4884 19.6962 50.441 19.5322 50.3171 19.452C50.1932 19.3646 49.9891 19.3208 49.7048 19.3208H47.4744C47.314 19.3208 47.1719 19.2625 47.048 19.1459C46.9314 19.0293 46.8731 18.8908 46.8731 18.7304C46.8731 18.5628 46.9314 18.4243 47.048 18.315C47.1719 18.1983 47.314 18.14 47.4744 18.14H49.7048C50.3316 18.14 50.8091 18.2348 51.1371 18.4243C51.4651 18.6138 51.6473 18.9236 51.6837 19.3536C51.7275 19.7764 51.6291 20.3486 51.3885 21.0702H52.7224C52.89 21.0702 53.0322 21.1285 53.1488 21.2451C53.2654 21.3544 53.3237 21.4929 53.3237 21.6606C53.3237 21.8209 53.2654 21.9594 53.1488 22.076C53.0322 22.1927 52.89 22.251 52.7224 22.251H46.2061ZM58.323 23.7352C58.1973 23.7352 58.0879 23.6942 57.995 23.6122C57.9075 23.5302 57.8638 23.4181 57.8638 23.276V20.9636C57.6615 21.1877 57.4292 21.42 57.1668 21.6606C56.9099 21.8956 56.642 22.117 56.3632 22.3248C56.0899 22.5325 55.8247 22.7102 55.5678 22.8578C55.4475 22.9234 55.3191 22.9425 55.1824 22.9152C55.0457 22.8824 54.9446 22.8058 54.879 22.6856C54.8189 22.5598 54.8079 22.4423 54.8462 22.333C54.8845 22.2236 54.961 22.1389 55.0758 22.0788C55.2726 21.9749 55.4858 21.841 55.7154 21.677C55.9505 21.513 56.1855 21.338 56.4206 21.1522C56.6557 20.9608 56.8771 20.7695 57.0848 20.5782C57.298 20.3868 57.4784 20.2092 57.626 20.0452H56.1008V20.0534C56.1008 20.3212 56.068 20.5372 56.0024 20.7012C55.9368 20.8597 55.8193 20.9745 55.6498 21.0456C55.4803 21.1166 55.2398 21.1522 54.9282 21.1522C54.6166 21.1522 54.3761 21.1166 54.2066 21.0456C54.0371 20.9745 53.9196 20.8597 53.854 20.7012C53.7884 20.5372 53.7556 20.3212 53.7556 20.0534V18.2084C53.7556 17.9405 53.7884 17.7273 53.854 17.5688C53.9196 17.4048 54.0371 17.2872 54.2066 17.2162C54.3761 17.1451 54.6166 17.1096 54.9282 17.1096C55.2398 17.1096 55.4803 17.1451 55.6498 17.2162C55.8193 17.2872 55.9368 17.4048 56.0024 17.5688C56.068 17.7273 56.1008 17.9405 56.1008 18.2084V19.2006H57.8638V18.2494H56.7486C56.6174 18.2494 56.5135 18.2084 56.437 18.1264C56.3605 18.0444 56.3222 17.9432 56.3222 17.823C56.3222 17.7082 56.3605 17.6098 56.437 17.5278C56.5135 17.4458 56.6174 17.4048 56.7486 17.4048H57.8638V16.5274C57.8638 16.3852 57.9075 16.2732 57.995 16.1912C58.0879 16.1092 58.1973 16.0682 58.323 16.0682C58.4542 16.0682 58.5635 16.1092 58.651 16.1912C58.7385 16.2732 58.7822 16.3852 58.7822 16.5274V17.4048H60.1598C60.2855 17.4048 60.3867 17.4458 60.4632 17.5278C60.5397 17.6098 60.578 17.7082 60.578 17.823C60.578 17.9432 60.5397 18.0444 60.4632 18.1264C60.3867 18.2084 60.2855 18.2494 60.1598 18.2494H58.7822V19.2006H60.7256C60.8513 19.2006 60.9525 19.2416 61.029 19.3236C61.1055 19.4056 61.1438 19.5067 61.1438 19.627C61.1438 19.7418 61.1055 19.8402 61.029 19.9222C60.9525 20.0042 60.8513 20.0452 60.7256 20.0452H59.0036C59.1293 20.2037 59.2797 20.3759 59.4546 20.5618C59.6295 20.7476 59.8154 20.9308 60.0122 21.1112C60.209 21.2916 60.4031 21.461 60.5944 21.6196C60.7857 21.7781 60.9607 21.912 61.1192 22.0214C61.234 22.0979 61.2996 22.2018 61.316 22.333C61.3379 22.4587 61.3078 22.5762 61.2258 22.6856C61.1383 22.8004 61.0263 22.8632 60.8896 22.8742C60.7529 22.8851 60.6272 22.8468 60.5124 22.7594C60.3539 22.6282 60.1735 22.4696 59.9712 22.2838C59.7689 22.0924 59.5639 21.8874 59.3562 21.6688C59.1539 21.4446 58.9626 21.2205 58.7822 20.9964V23.276C58.7822 23.4181 58.7385 23.5302 58.651 23.6122C58.5635 23.6942 58.4542 23.7352 58.323 23.7352ZM54.9282 20.2666C55.0539 20.2666 55.1387 20.2474 55.1824 20.2092C55.2261 20.1709 55.248 20.0862 55.248 19.955V18.3068C55.248 18.1756 55.2261 18.0908 55.1824 18.0526C55.1387 18.0143 55.0539 17.9952 54.9282 17.9952C54.797 17.9952 54.7095 18.0143 54.6658 18.0526C54.6275 18.0908 54.6084 18.1756 54.6084 18.3068V19.955C54.6084 20.0862 54.6275 20.1709 54.6658 20.2092C54.7095 20.2474 54.797 20.2666 54.9282 20.2666Z" fill="#0076BC"/>
</g>
<defs>
<clipPath id="clip0_173_1310">
<rect width="84" height="40.0214" fill="white" transform="matrix(-1 0 0 1 84 0)"/>
</clipPath>
</defs>
</svg>
